<?xml version="1.0" encoding="UTF-8"?>
<svg id="_レイヤー_1" data-name="レイヤー_1" xmlns="http://www.w3.org/2000/svg" version="1.1" viewBox="0 0 29.3 30">
  <!-- Generator: Adobe Illustrator 29.7.1, SVG Export Plug-In . SVG Version: 2.1.1 Build 8)  -->
  <defs>
    <style>
      .st0 {
        fill: #fff;
      }
    </style>
  </defs>
  <path class="st0" d="M22.67,6.96c-.56-3.95-3.97-6.96-8.02-6.96S7.19,3.01,6.63,6.96H0v18.69c0,2.4,1.95,4.35,4.35,4.35h20.6c2.4,0,4.35-1.95,4.35-4.35V6.96h-6.63ZM9.2,15.92v-6.29h10.9v6.29h2.66v-6.29h3.88v16.03c0,.93-.76,1.69-1.69,1.69H4.35c-.93,0-1.69-.76-1.69-1.69V9.62h3.88v6.29h2.66ZM9.35,6.96c.53-2.46,2.73-4.3,5.29-4.3s4.76,1.84,5.29,4.3h-10.59Z"/>
</svg>