<?xml version="1.0" encoding="UTF-8"?>
<svg id="_レイヤー_1" data-name="レイヤー_1" xmlns="http://www.w3.org/2000/svg" version="1.1" viewBox="0 0 28.44 30">
  <!-- Generator: Adobe Illustrator 29.7.1, SVG Export Plug-In . SVG Version: 2.1.1 Build 8)  -->
  <defs>
    <style>
      .st0 {
        fill: #fff;
      }
    </style>
  </defs>
  <path class="st0" d="M14.22,16.41c4.52,0,8.21-3.68,8.21-8.21S18.74,0,14.22,0,6.01,3.68,6.01,8.21s3.68,8.21,8.21,8.21ZM8.33,8.21c0-3.25,2.64-5.89,5.89-5.89s5.89,2.64,5.89,5.89-2.64,5.89-5.89,5.89-5.89-2.64-5.89-5.89Z"/>
  <path class="st0" d="M28.22,25.74c-1.89-4.42-7.51-7.39-14-7.39S2.11,21.32.22,25.74c-.4.94-.3,2.02.27,2.88.57.87,1.53,1.39,2.57,1.39h22.33c1.04,0,2-.52,2.57-1.39.57-.86.67-1.93.26-2.88ZM26.02,27.34c-.14.22-.38.35-.64.35H3.06c-.26,0-.5-.13-.64-.35-.14-.21-.17-.46-.07-.69,1.5-3.52,6.39-5.98,11.87-5.98s10.37,2.46,11.87,5.98c.1.23.07.48-.07.69Z"/>
</svg>