<?xml version="1.0" encoding="UTF-8"?>
<svg id="_レイヤー_1" xmlns="http://www.w3.org/2000/svg" version="1.1" viewBox="0 0 841.89 296.39">
  <!-- Generator: Adobe Illustrator 29.7.1, SVG Export Plug-In . SVG Version: 2.1.1 Build 8)  -->
  <defs>
    <style>
      .st0 {
        fill: #fff;
      }
    </style>
  </defs>
  <g>
    <path class="st0" d="M346.58,144.34c-2.51,0-6.81.08-10.02.15-1.1,0-1.25-1.33-.15-1.49,1.88-.23,2.82-.39,3.99-.63,2.51-.63,3.29-2.35,3.29-11.43.16-4.85.16-9.32.16-14.33v-14.25c0-8.69-.24-10.72-2.9-11.35-1.1-.32-2.35-.55-4.62-.94-.63-.16-1.02-.47-1.02-.78s.39-.63,1.02-.63c1.56,0,5.01.23,10.26.23s10.49-.23,11.51-.23,1.02,1.57-.08,1.72-3.13.39-5.4.86c-2.27.55-2.51,3.44-2.58,11.2,0,2.89,0,5.95-.08,9.71,0,1.64.94,2.51,2.58,2.27,1.1-.24,2.04-.47,2.98-.86,1.02-.39,1.65-.78,2.35-1.57,4.54-4.62,7.67-8.06,13.47-14.72,3.76-4.15,3.44-5.87,1.49-6.42-.94-.23-2.66-.55-4.62-.7-1.1-.16-1.02-1.65.08-1.65,2.66,0,5.09.23,10.73.23,3.68,0,5.4-.08,8.53-.15,1.1,0,1.17,1.33,0,1.49-2.35.39-3.37.78-5.79,2.11-2.11,1.18-3.84,2.35-8.69,7.2l-11.2,11.67c-1.02,1.09-1.1,2.11-.15,3.29,4.23,5.25,10.18,12.61,15.43,18.95,3.21,3.76,5.4,5.87,7.52,7.28,1.64,1.18,3.76,1.88,5.87,2.27.63.08.94.55.94.86,0,.39-.31.78-.86.78-1.88,0-5.32-.08-10.34-.08-3.52,0-8.3.16-12.06.16-1.1,0-1.1-1.49,0-1.57,2.43-.23,3.6-.39,5.09-.7,1.41-.39,1.57-2.03-.31-4.38-6.89-8.61-12.84-15.82-16.52-20.2-.78-.94-1.65-1.33-2.9-1.25l-1.33.08c-1.49.08-2.27.86-2.27,2.35v11.59c0,9.48.23,10.96,3.29,11.74,1.8.39,3.45.78,4.31.86,1.1.15,1.02,1.49-.08,1.49-2.9-.08-8.46-.23-10.89-.23Z"/>
    <path class="st0" d="M406.97,144.42c-2.66,0-5.4.08-7.28.08-.63,0-.86-.31-.86-.63,0-.39.23-.7.86-.78,1.33-.24,2.43-.47,3.06-.7,2.43-.86,3.99-3.21,7.05-10.81,3.99-9.86,10.34-26.78,15.35-39.93,1.57-4.31,2.04-6.03,2.82-6.03.86,0,1.1,1.64,2.9,6.1,4.94,12.84,10.81,27.8,15.58,39.47,2.82,6.97,3.91,9.4,6.03,10.49,1.41.7,2.98,1.02,4.46,1.33.47.08.7.47.7.78s-.31.7-.86.7c-3.6,0-7.6-.08-10.89-.08-5.09,0-9.55.08-11.43.08-1.1,0-1.17-1.33-.08-1.49,2.43-.31,3.53-.47,4.7-.7,3.21-.78,3.45-3.84,1.33-8.93l-4.46-11.59c-.47-1.25-1.33-1.8-2.66-1.88-4.23-.16-10.26-.08-14.1.08-1.33,0-2.19.63-2.66,1.88l-3.37,9.32c-2.82,7.91-2.35,10.41.23,10.96,1.49.39,3.99.78,5.4.86,1.1.16.94,1.57-.16,1.57-2.35,0-9.24-.16-11.67-.16ZM433.36,114.9c-2.03-5.09-3.99-10.26-6.18-15.9-.86-2.04-1.96-1.65-2.58.24-1.65,4.85-3.68,10.41-5.56,15.66-.55,1.64.16,2.74,1.88,2.74,3.21.08,7.2.08,10.57,0,1.8,0,2.51-1.1,1.88-2.74Z"/>
    <path class="st0" d="M474.25,142.15c-4.15-10.65-11.12-29.05-16.76-43.23-2.58-6.58-3.6-7.28-5.4-7.99-1.02-.39-1.8-.63-3.37-.86-.47-.08-.7-.47-.7-.78,0-.39.23-.7.94-.7h9.95c5.48,0,9.94-.23,12.22-.23,1.09,0,1.09,1.72,0,1.72-2.74.16-3.92.31-5.72.78-2.97.78-3.21,2.27-1.09,8.06l12.45,34.14c.78,2.03,1.8,2.03,2.58,0,3.37-8.77,8.06-20.98,10.73-28.03.39-1.1.39-1.96,0-3.06l-.7-2.19c-2.43-7.05-3.29-8.38-5.33-9.01-1.17-.39-2.35-.63-2.89-.63-1.1-.16-1.02-1.72.08-1.72.55,0,3.6.31,9.32.31,5.4,0,9.79-.39,12.14-.39,1.1,0,1.1,1.64,0,1.72-2.58.23-4.15.55-6.26.86-2.98.47-2.82,2.19-1.02,7.99.78,2.35,7.2,22.4,10.81,33.59.7,2.11,1.8,2.11,2.58.08,4.62-12.22,8.38-22.24,12.06-33.28,1.64-5.25,1.17-7.75-1.33-8.3-3.44-.78-4.93-.94-6.5-1.1-1.09-.15-1.09-1.56,0-1.56,1.65,0,5.33.23,11.04.23h8.3c.55,0,.86.31.86.7,0,.32-.23.7-.78.78-1.64.39-2.19.63-3.21,1.18-1.49.86-2.51,1.57-5.01,7.99-4.85,11.98-10.49,26.7-15.27,38.6-1.88,4.78-2.74,8.07-3.68,8.07-.39,0-.78-.86-1.8-3.84-2.43-7.2-6.42-19.34-10.41-31.16-.7-2.12-1.72-2.12-2.58-.08-3.91,9.94-7.83,19.97-10.65,26.86-1.96,4.86-2.9,8.22-3.76,8.22-.55,0-.78-1.02-1.8-3.76Z"/>
    <path class="st0" d="M532.05,144.42c-2.66,0-5.4.08-7.28.08-.63,0-.86-.31-.86-.63,0-.39.24-.7.86-.78,1.33-.24,2.43-.47,3.05-.7,2.43-.86,3.99-3.21,7.05-10.81,3.99-9.86,10.34-26.78,15.35-39.93,1.56-4.31,2.03-6.03,2.82-6.03.86,0,1.1,1.64,2.9,6.1,4.93,12.84,10.81,27.8,15.58,39.47,2.82,6.97,3.91,9.4,6.03,10.49,1.41.7,2.98,1.02,4.46,1.33.47.08.7.47.7.78s-.31.7-.86.7c-3.6,0-7.59-.08-10.88-.08-5.09,0-9.55.08-11.43.08-1.1,0-1.18-1.33-.08-1.49,2.43-.31,3.52-.47,4.7-.7,3.21-.78,3.44-3.84,1.33-8.93l-4.46-11.59c-.47-1.25-1.33-1.8-2.66-1.88-4.23-.16-10.26-.08-14.1.08-1.33,0-2.19.63-2.66,1.88l-3.37,9.32c-2.82,7.91-2.35,10.41.24,10.96,1.49.39,3.99.78,5.4.86,1.1.16.94,1.57-.15,1.57-2.35,0-9.24-.16-11.67-.16ZM558.44,114.9c-2.04-5.09-3.99-10.26-6.19-15.9-.86-2.04-1.96-1.65-2.58.24-1.64,4.85-3.68,10.41-5.56,15.66-.55,1.64.15,2.74,1.88,2.74,3.21.08,7.2.08,10.57,0,1.8,0,2.51-1.1,1.88-2.74Z"/>
    <path class="st0" d="M589.31,142.85c1.33-.15,2.03-.23,4.15-.7,2.66-.55,3.21-2.66,3.21-10.18v-15.35c0-6.03.08-10.34,0-14.33,0-7.2-.16-10.73-2.9-11.43-1.72-.39-3.05-.63-5.01-.86-.55-.08-.78-.47-.78-.78s.24-.63.78-.63c2.27,0,6.42.24,11.12.24,4.31,0,9.63-.24,10.73-.24s1.1,1.49,0,1.57c-1.33.08-2.9.31-4.85.78-2.82.71-2.9,4.15-2.9,11.59,0,3.76,0,6.5-.08,9.71,0,1.56.78,2.43,2.27,2.43,8.06.31,21.69.31,29.36,0,1.49,0,2.27-.87,2.27-2.35v-12.45c0-6.97-.39-8.15-3.05-8.77-1.96-.39-3.84-.7-5.01-.94-1.1-.24-1.02-1.57,0-1.57.94,0,5.32.31,11.04.31,3.37,0,8.22-.23,11.12-.31.55,0,.86.31.86.7,0,.32-.31.7-.86.78-2.03.31-3.37.47-4.7.78-2.58.7-3.05,2.35-3.13,9.01-.08,6.26,0,10.72,0,16.76v15.5c0,6.81.39,9.32,2.66,9.94,2.11.63,3.37.78,5.01.94,1.1.08,1.02,1.49-.08,1.49-1.57,0-7.83-.24-10.34-.24-2.66,0-10.88.24-11.51.24-1.1,0-1.1-1.49,0-1.65,1.02-.15,3.05-.31,5.17-.86,2.66-.55,2.98-3.44,2.98-9.63,0-4.31,0-7.99-.08-12.84-.08-1.49-.86-2.27-2.35-2.35-7.67-.23-21.38-.23-29.36,0-1.49.08-2.27.86-2.27,2.35v12.29c0,7.2.16,9.4,2.9,10.1,1.33.47,3.6.7,4.62.86,1.1.23.94,1.72-.08,1.72-1.88,0-5.32-.24-10.88-.24-2.43,0-8.54.24-10.26.24-1.1,0-1.02-1.49.24-1.65Z"/>
    <path class="st0" d="M665.67,144.42c-2.66,0-5.4.08-7.28.08-.63,0-.86-.31-.86-.63,0-.39.23-.7.86-.78,1.33-.24,2.43-.47,3.06-.7,2.43-.86,3.99-3.21,7.05-10.81,3.99-9.86,10.34-26.78,15.35-39.93,1.57-4.31,2.04-6.03,2.82-6.03.86,0,1.1,1.64,2.9,6.1,4.94,12.84,10.81,27.8,15.58,39.47,2.82,6.97,3.91,9.4,6.03,10.49,1.41.7,2.98,1.02,4.46,1.33.47.08.7.47.7.78s-.31.7-.86.7c-3.6,0-7.6-.08-10.89-.08-5.09,0-9.55.08-11.43.08-1.1,0-1.17-1.33-.08-1.49,2.43-.31,3.53-.47,4.7-.7,3.21-.78,3.45-3.84,1.33-8.93l-4.46-11.59c-.47-1.25-1.33-1.8-2.66-1.88-4.23-.16-10.26-.08-14.1.08-1.33,0-2.19.63-2.66,1.88l-3.37,9.32c-2.82,7.91-2.35,10.41.23,10.96,1.49.39,3.99.78,5.4.86,1.1.16.94,1.57-.16,1.57-2.35,0-9.24-.16-11.67-.16ZM692.06,114.9c-2.03-5.09-3.99-10.26-6.18-15.9-.86-2.04-1.96-1.65-2.58.24-1.65,4.85-3.68,10.41-5.56,15.66-.55,1.64.16,2.74,1.88,2.74,3.21.08,7.2.08,10.57,0,1.8,0,2.51-1.1,1.88-2.74Z"/>
    <path class="st0" d="M762.08,139.18c-4.62-6.89-7.28-11.12-10.65-16.84-1.88-3.21-2.43-3.84-5.32-3.91l-4.31-.24c-1.57,0-2.43.78-2.43,2.27,0,3.29.08,6.73.08,11.51,0,6.97.16,8.85,3.21,9.71,1.96.55,3.99.86,5.64,1.1,1.1.23,1.02,1.57-.08,1.57-3.21,0-7.36-.08-12.06-.08-4.39,0-8.07.24-10.18.24-.55,0-.78-.31-.78-.7,0-.31.24-.7.78-.78,2.03-.31,2.43-.39,3.68-.7,2.97-.86,3.52-2.9,3.52-10.1v-17.69c.08-6.74.08-10.02.08-13.62-.08-6.97-.39-9.48-2.74-10.1-1.72-.47-3.44-.7-4.38-.78-.63,0-.94-.39-.94-.7,0-.39.31-.7,1.02-.7,1.88,0,5.72.08,9.71.08,5.56,0,8.14-.31,12.84-.31,13.31,0,17.46,7.13,17.46,14.01,0,5.72-3.68,10.81-8.93,13.31-1.49.63-1.96,1.64-1.1,2.97,2.19,3.6,5.25,8.61,8.77,13.55,3.13,4.46,5.32,7.44,7.75,8.93,1.65.94,3.21,1.41,5.48,1.88.63.08.94.47.94.78,0,.39-.31.7-1.02.7-2.74,0-5.32.08-10.02.08-1.41,0-3.13-1.25-6.03-5.4ZM746.03,116c3.44-.08,5.48-.31,7.75-1.88,3.29-2.19,5.64-6.03,5.64-10.49,0-8.53-5.79-13.31-14.8-13.31-.94,0-1.8,0-2.58.08-1.41,0-2.35,1.02-2.43,2.9-.08,1.64-.08,4.15-.08,7.83-.08,4.46-.08,8.15-.08,12.53,0,1.57.78,2.43,2.27,2.43,1.41,0,2.9,0,4.31-.08Z"/>
    <path class="st0" d="M791.23,144.42c-2.66,0-5.4.08-7.28.08-.63,0-.86-.31-.86-.63,0-.39.24-.7.86-.78,1.33-.24,2.43-.47,3.05-.7,2.43-.86,3.99-3.21,7.05-10.81,3.99-9.86,10.34-26.78,15.35-39.93,1.56-4.31,2.03-6.03,2.82-6.03.86,0,1.1,1.64,2.9,6.1,4.93,12.84,10.81,27.8,15.58,39.47,2.82,6.97,3.91,9.4,6.03,10.49,1.41.7,2.98,1.02,4.46,1.33.47.08.7.47.7.78s-.31.7-.86.7c-3.6,0-7.59-.08-10.88-.08-5.09,0-9.55.08-11.43.08-1.1,0-1.18-1.33-.08-1.49,2.43-.31,3.52-.47,4.7-.7,3.21-.78,3.44-3.84,1.33-8.93l-4.46-11.59c-.47-1.25-1.33-1.8-2.66-1.88-4.23-.16-10.26-.08-14.1.08-1.33,0-2.19.63-2.66,1.88l-3.37,9.32c-2.82,7.91-2.35,10.41.24,10.96,1.49.39,3.99.78,5.4.86,1.1.16.94,1.57-.15,1.57-2.35,0-9.24-.16-11.67-.16ZM817.62,114.9c-2.04-5.09-3.99-10.26-6.19-15.9-.86-2.04-1.96-1.65-2.58.24-1.64,4.85-3.68,10.41-5.56,15.66-.55,1.64.15,2.74,1.88,2.74,3.21.08,7.2.08,10.57,0,1.8,0,2.51-1.1,1.88-2.74Z"/>
    <path class="st0" d="M335.3,240c1.33-.15,2.03-.23,4.15-.7,2.66-.55,3.21-2.66,3.21-10.18v-15.35c0-6.03.08-10.34,0-14.33,0-7.2-.16-10.73-2.9-11.43-1.72-.39-3.05-.63-5.01-.86-.55-.08-.78-.47-.78-.78s.24-.63.78-.63c2.27,0,6.42.24,11.12.24,4.31,0,9.63-.24,10.73-.24s1.1,1.49,0,1.57c-1.33.08-2.9.31-4.85.78-2.82.71-2.9,4.15-2.9,11.59,0,3.76,0,6.5-.08,9.71,0,1.56.78,2.43,2.27,2.43,8.06.31,21.69.31,29.36,0,1.49,0,2.27-.87,2.27-2.35v-12.45c0-6.97-.39-8.15-3.05-8.77-1.96-.39-3.84-.7-5.01-.94-1.1-.24-1.02-1.57,0-1.57.94,0,5.32.31,11.04.31,3.37,0,8.22-.23,11.12-.31.55,0,.86.31.86.7,0,.32-.31.7-.86.78-2.03.31-3.37.47-4.7.78-2.58.7-3.05,2.35-3.13,9.01-.08,6.26,0,10.72,0,16.76v15.5c0,6.81.39,9.32,2.66,9.94,2.11.63,3.37.78,5.01.94,1.1.08,1.02,1.49-.08,1.49-1.57,0-7.83-.24-10.34-.24-2.66,0-10.88.24-11.51.24-1.1,0-1.1-1.49,0-1.65,1.02-.15,3.05-.31,5.17-.86,2.66-.55,2.98-3.44,2.98-9.63,0-4.31,0-7.99-.08-12.84-.08-1.49-.86-2.27-2.35-2.35-7.67-.23-21.38-.23-29.36,0-1.49.08-2.27.86-2.27,2.35v12.29c0,7.2.16,9.4,2.9,10.1,1.33.47,3.6.7,4.62.86,1.1.23.94,1.72-.08,1.72-1.88,0-5.32-.24-10.88-.24-2.43,0-8.54.24-10.26.24-1.1,0-1.02-1.49.24-1.65Z"/>
    <path class="st0" d="M413.63,241.57c-2.66,0-5.4.08-7.28.08-.63,0-.86-.31-.86-.63,0-.39.23-.7.86-.78,1.33-.24,2.43-.47,3.06-.7,2.43-.86,3.99-3.21,7.05-10.81,3.99-9.86,10.34-26.78,15.35-39.93,1.57-4.31,2.04-6.03,2.82-6.03.86,0,1.1,1.64,2.9,6.1,4.94,12.84,10.81,27.8,15.58,39.47,2.82,6.97,3.91,9.4,6.03,10.49,1.41.7,2.98,1.02,4.46,1.33.47.08.7.47.7.78s-.31.7-.86.7c-3.6,0-7.6-.08-10.89-.08-5.09,0-9.55.08-11.43.08-1.1,0-1.17-1.33-.08-1.49,2.43-.31,3.53-.47,4.7-.7,3.21-.78,3.45-3.84,1.33-8.93l-4.46-11.59c-.47-1.25-1.33-1.8-2.66-1.88-4.23-.16-10.26-.08-14.1.08-1.33,0-2.19.63-2.66,1.88l-3.37,9.32c-2.82,7.91-2.35,10.41.23,10.96,1.49.39,3.99.78,5.4.86,1.1.16.94,1.57-.16,1.57-2.35,0-9.24-.16-11.67-.16ZM440.01,212.05c-2.03-5.09-3.99-10.26-6.18-15.9-.86-2.04-1.96-1.65-2.58.24-1.65,4.85-3.68,10.41-5.56,15.66-.55,1.64.16,2.74,1.88,2.74,3.21.08,7.2.08,10.57,0,1.8,0,2.51-1.1,1.88-2.74Z"/>
    <path class="st0" d="M482.79,241.49c-4.78,0-6.89.15-8.93.15-1.1,0-1.1-1.33.15-1.56,2.11-.39,2.43-.47,3.99-.94,2.51-.78,2.9-3.29,3.13-12.45l.32-13.16c.15-6.03.15-10.88.15-19.89,0-2.98-1.33-4.46-3.76-5.25-1.96-.63-2.98-.86-4.94-1.25-.55-.08-.86-.39-.86-.7,0-.39.39-.7,1.02-.7,2.43,0,8.46.24,12.53,0,1.18,0,1.49.55,2.58,1.88,13.86,17.46,21.22,26.47,27.8,34.61l3.29,4.07c1.72,2.19,2.82,1.96,2.82-1.02,0-6.34-.08-11.59-.08-16.84v-9.63c0-7.44-.39-9.55-3.05-10.26-1.72-.47-3.76-.86-6.42-1.25-1.1-.24-1.1-1.65,0-1.65,1.64,0,4.85.23,10.65.23,4.85,0,7.91-.15,8.77-.15.63,0,.94.24.94.55,0,.47-.31.78-.94.94-2.03.39-2.82.55-3.76.94-2.43.78-3.13,2.82-3.21,10.18l-.16,10.1c-.15,7.83-.08,12.45-.08,18.64,0,9.71.08,12.06.15,13.39.08,1.1-.63,1.8-1.41,1.8-.39,0-.78-.15-1.1-.63-.78-1.25-1.72-3.52-6.19-9.08-8.38-10.41-16.84-21.06-23.18-28.89-2.19-2.74-4.07-4.93-5.87-7.13-1.73-2.11-2.98-1.88-2.98,1.1,0,5.79-.08,11.43-.08,15.74l.08,13.31c.08,9.16.86,11.67,3.68,12.37,1.64.47,2.97.63,6.81,1.02,1.09.08,1.09,1.64,0,1.64-2.43,0-6.58-.23-11.9-.23Z"/>
    <path class="st0" d="M540.36,241.57c-2.66,0-5.4.08-7.28.08-.63,0-.86-.31-.86-.63,0-.39.23-.7.86-.78,1.33-.24,2.43-.47,3.06-.7,2.43-.86,3.99-3.21,7.05-10.81,3.99-9.86,10.34-26.78,15.35-39.93,1.57-4.31,2.04-6.03,2.82-6.03.86,0,1.1,1.64,2.9,6.1,4.94,12.84,10.81,27.8,15.58,39.47,2.82,6.97,3.91,9.4,6.03,10.49,1.41.7,2.98,1.02,4.46,1.33.47.08.7.47.7.78s-.31.7-.86.7c-3.6,0-7.6-.08-10.89-.08-5.09,0-9.55.08-11.43.08-1.1,0-1.17-1.33-.08-1.49,2.43-.31,3.53-.47,4.7-.7,3.21-.78,3.45-3.84,1.33-8.93l-4.46-11.59c-.47-1.25-1.33-1.8-2.66-1.88-4.23-.16-10.26-.08-14.1.08-1.33,0-2.19.63-2.66,1.88l-3.37,9.32c-2.82,7.91-2.35,10.41.23,10.96,1.49.39,3.99.78,5.4.86,1.1.16.94,1.57-.16,1.57-2.35,0-9.24-.16-11.67-.16ZM566.74,212.05c-2.03-5.09-3.99-10.26-6.18-15.9-.86-2.04-1.96-1.65-2.58.24-1.65,4.85-3.68,10.41-5.56,15.66-.55,1.64.16,2.74,1.88,2.74,3.21.08,7.2.08,10.57,0,1.8,0,2.51-1.1,1.88-2.74Z"/>
    <path class="st0" d="M608.89,241.49c-2.51,0-6.81.08-10.02.15-1.1,0-1.25-1.33-.16-1.49,1.88-.23,2.82-.39,3.99-.63,2.51-.63,3.29-2.35,3.29-11.43.15-4.85.15-9.32.15-14.33v-14.25c0-8.69-.23-10.72-2.9-11.35-1.1-.32-2.35-.55-4.62-.94-.63-.16-1.02-.47-1.02-.78s.39-.63,1.02-.63c1.57,0,5.01.23,10.26.23s10.49-.23,11.51-.23,1.02,1.57-.08,1.72-3.13.39-5.4.86c-2.27.55-2.51,3.44-2.58,11.2,0,2.89,0,5.95-.08,9.71,0,1.64.94,2.51,2.58,2.27,1.1-.24,2.03-.47,2.98-.86,1.02-.39,1.64-.78,2.35-1.57,4.54-4.62,7.67-8.06,13.47-14.72,3.76-4.15,3.45-5.87,1.49-6.42-.94-.23-2.66-.55-4.62-.7-1.1-.16-1.02-1.65.08-1.65,2.66,0,5.09.23,10.73.23,3.68,0,5.4-.08,8.53-.15,1.1,0,1.18,1.33,0,1.49-2.35.39-3.37.78-5.79,2.11-2.11,1.18-3.84,2.35-8.69,7.2l-11.2,11.67c-1.02,1.09-1.1,2.11-.16,3.29,4.23,5.25,10.18,12.61,15.43,18.95,3.21,3.76,5.4,5.87,7.52,7.28,1.65,1.18,3.76,1.88,5.87,2.27.63.08.94.55.94.86,0,.39-.31.78-.86.78-1.88,0-5.32-.08-10.34-.08-3.53,0-8.3.16-12.06.16-1.1,0-1.1-1.49,0-1.57,2.43-.23,3.6-.39,5.09-.7,1.41-.39,1.57-2.03-.31-4.38-6.89-8.61-12.84-15.82-16.52-20.2-.78-.94-1.64-1.33-2.9-1.25l-1.33.08c-1.49.08-2.27.86-2.27,2.35v11.59c0,9.48.24,10.96,3.29,11.74,1.8.39,3.44.78,4.31.86,1.1.15,1.02,1.49-.08,1.49-2.9-.08-8.46-.23-10.88-.23Z"/>
    <path class="st0" d="M665.28,235.85c-5.17-4.77-8.69-11.82-8.69-20.2,0-19.81,13.7-30.54,29.6-30.54,7.36,0,13.94,2.35,18.56,6.66,5.17,4.77,8.77,11.82,8.77,20.12,0,19.89-13.7,30.62-29.76,30.62-7.28,0-13.78-2.43-18.48-6.66ZM706.55,214.47c-.08-9.55-3.6-16.91-8.38-21.53-3.91-3.84-8.69-5.56-14.8-5.56-9.4,0-19.89,8.69-19.73,25.76,0,9.4,3.37,16.99,8.06,21.54,4.07,3.76,8.85,5.56,14.88,5.56,9.55-.08,19.97-8.85,19.97-25.76Z"/>
  </g>
  <path class="st0" d="M223.06,89.38c-12.98-15.66-29.57-27.97-48.04-35.59l-.94-.27h-.13l-12.31-4.28-1.34-.54L19.54,0c18.33,32.78,18.06,73.19-1.34,105.31-5.75,9.37-10.17,19.54-13.11,29.97-3.35,11.37-5.08,23.15-5.08,35.19,0,6.96.53,13.78,1.74,20.34,9.63,59.81,61.69,105.58,124.31,105.58,69.45,0,126.05-56.47,126.05-125.91,0-29.84-10.3-58.61-29.04-81.09Z"/>
</svg>