<?xml version="1.0" encoding="UTF-8"?>
<svg id="_レイヤー_1" data-name="レイヤー_1" xmlns="http://www.w3.org/2000/svg" version="1.1" viewBox="0 0 230 62.6">
  <!-- Generator: Adobe Illustrator 29.7.1, SVG Export Plug-In . SVG Version: 2.1.1 Build 8)  -->
  <defs>
    <style>
      .st0 {
        fill: #fff;
      }
    </style>
  </defs>
  <g>
    <path class="st0" d="M5.13,26.74c-1.14,0-3.1.03-4.56.07-.5,0-.57-.61-.07-.68.85-.11,1.28-.18,1.82-.28,1.14-.28,1.5-1.07,1.5-5.2.07-2.21.07-4.24.07-6.52v-6.49c0-3.96-.11-4.88-1.32-5.17-.5-.14-1.07-.25-2.1-.43-.29-.07-.46-.21-.46-.36s.18-.28.46-.28c.71,0,2.28.11,4.67.11s4.78-.11,5.24-.11.46.71-.04.78-1.43.18-2.46.39c-1.03.25-1.14,1.57-1.18,5.1,0,1.32,0,2.71-.03,4.42,0,.75.43,1.14,1.18,1.03.5-.11.93-.21,1.36-.39.46-.18.75-.36,1.07-.71,2.07-2.1,3.49-3.67,6.13-6.7,1.71-1.89,1.57-2.67.68-2.92-.43-.11-1.21-.25-2.1-.32-.5-.07-.46-.75.03-.75,1.21,0,2.32.11,4.89.11,1.67,0,2.46-.03,3.89-.07.5,0,.53.61,0,.68-1.07.18-1.53.36-2.64.96-.96.54-1.75,1.07-3.96,3.28l-5.1,5.31c-.46.5-.5.96-.07,1.5,1.92,2.39,4.63,5.74,7.02,8.63,1.46,1.71,2.46,2.67,3.42,3.32.75.54,1.71.85,2.67,1.03.29.04.43.25.43.39,0,.18-.14.36-.39.36-.86,0-2.42-.04-4.71-.04-1.6,0-3.78.07-5.49.07-.5,0-.5-.68,0-.71,1.1-.11,1.64-.18,2.32-.32.64-.18.71-.93-.14-2-3.14-3.92-5.85-7.2-7.52-9.2-.36-.43-.75-.61-1.32-.57l-.61.04c-.68.04-1.03.39-1.03,1.07v5.28c0,4.31.11,4.99,1.5,5.35.82.18,1.57.36,1.96.39.5.07.46.68-.03.68-1.32-.04-3.85-.11-4.96-.11Z"/>
    <path class="st0" d="M31.98,26.77c-1.21,0-2.46.04-3.32.04-.28,0-.39-.14-.39-.29,0-.18.11-.32.39-.36.61-.11,1.11-.21,1.39-.32,1.1-.39,1.82-1.46,3.21-4.92,1.82-4.49,4.71-12.19,6.99-18.18.71-1.96.93-2.74,1.28-2.74.39,0,.5.75,1.32,2.78,2.25,5.85,4.92,12.66,7.1,17.97,1.28,3.17,1.78,4.28,2.74,4.78.64.32,1.36.46,2.03.61.21.04.32.21.32.36s-.14.32-.39.32c-1.64,0-3.46-.04-4.96-.04-2.32,0-4.35.04-5.2.04-.5,0-.53-.61-.04-.68,1.11-.14,1.61-.21,2.14-.32,1.46-.36,1.57-1.75.61-4.06l-2.03-5.28c-.21-.57-.61-.82-1.21-.85-1.93-.07-4.67-.04-6.42.03-.61,0-1,.28-1.21.86l-1.53,4.24c-1.28,3.6-1.07,4.74.11,4.99.68.18,1.82.36,2.46.39.5.07.43.71-.07.71-1.07,0-4.21-.07-5.31-.07ZM44,13.33c-.93-2.32-1.82-4.67-2.82-7.24-.39-.93-.89-.75-1.18.11-.75,2.21-1.68,4.74-2.53,7.13-.25.75.07,1.25.86,1.25,1.46.04,3.28.04,4.81,0,.82,0,1.14-.5.85-1.25Z"/>
    <path class="st0" d="M62.61,25.74c-1.89-4.85-5.06-13.23-7.63-19.68-1.18-3-1.64-3.31-2.46-3.64-.46-.18-.82-.28-1.53-.39-.21-.04-.32-.21-.32-.36,0-.18.11-.32.43-.32h4.53c2.49,0,4.53-.11,5.56-.11.5,0,.5.78,0,.78-1.25.07-1.78.14-2.6.36-1.35.36-1.46,1.03-.5,3.67l5.67,15.54c.36.93.82.93,1.18,0,1.53-3.99,3.67-9.55,4.88-12.76.18-.5.18-.89,0-1.39l-.32-1c-1.11-3.21-1.5-3.82-2.43-4.1-.53-.18-1.07-.28-1.32-.28-.5-.07-.46-.78.03-.78.25,0,1.64.14,4.24.14,2.46,0,4.46-.18,5.53-.18.5,0,.5.75,0,.78-1.18.11-1.89.25-2.85.39-1.36.21-1.28,1-.46,3.64.36,1.07,3.28,10.2,4.92,15.3.32.96.82.96,1.18.03,2.1-5.56,3.82-10.12,5.49-15.15.75-2.39.53-3.53-.61-3.78-1.57-.36-2.25-.43-2.96-.5-.5-.07-.5-.71,0-.71.75,0,2.43.11,5.03.11h3.78c.25,0,.39.14.39.32,0,.14-.11.32-.36.36-.75.18-1,.28-1.46.54-.68.39-1.14.71-2.28,3.64-2.21,5.45-4.78,12.16-6.95,17.57-.86,2.18-1.25,3.67-1.68,3.67-.18,0-.36-.39-.82-1.75-1.1-3.28-2.92-8.8-4.74-14.19-.32-.96-.78-.96-1.18-.04-1.78,4.53-3.56,9.09-4.85,12.23-.89,2.21-1.32,3.74-1.71,3.74-.25,0-.36-.46-.82-1.71Z"/>
    <path class="st0" d="M88.93,26.77c-1.21,0-2.46.04-3.32.04-.28,0-.39-.14-.39-.29,0-.18.11-.32.39-.36.61-.11,1.1-.21,1.39-.32,1.11-.39,1.82-1.46,3.21-4.92,1.82-4.49,4.71-12.19,6.99-18.18.71-1.96.93-2.74,1.28-2.74.39,0,.5.75,1.32,2.78,2.25,5.85,4.92,12.66,7.09,17.97,1.28,3.17,1.78,4.28,2.74,4.78.64.32,1.36.46,2.03.61.21.04.32.21.32.36s-.14.32-.39.32c-1.64,0-3.46-.04-4.95-.04-2.32,0-4.35.04-5.2.04-.5,0-.54-.61-.04-.68,1.1-.14,1.6-.21,2.14-.32,1.46-.36,1.57-1.75.61-4.06l-2.03-5.28c-.21-.57-.61-.82-1.21-.85-1.92-.07-4.67-.04-6.42.03-.61,0-1,.28-1.21.86l-1.53,4.24c-1.28,3.6-1.07,4.74.11,4.99.68.18,1.82.36,2.46.39.5.07.43.71-.07.71-1.07,0-4.21-.07-5.31-.07ZM100.95,13.33c-.93-2.32-1.82-4.67-2.82-7.24-.39-.93-.89-.75-1.18.11-.75,2.21-1.67,4.74-2.53,7.13-.25.75.07,1.25.86,1.25,1.46.04,3.28.04,4.81,0,.82,0,1.14-.5.86-1.25Z"/>
    <path class="st0" d="M115,26.06c.61-.07.93-.11,1.89-.32,1.21-.25,1.46-1.21,1.46-4.64v-6.99c0-2.75.04-4.71,0-6.52,0-3.28-.07-4.88-1.32-5.2-.78-.18-1.39-.28-2.28-.39-.25-.04-.36-.21-.36-.36s.11-.29.36-.29c1.03,0,2.92.11,5.06.11,1.96,0,4.38-.11,4.88-.11s.5.68,0,.71c-.61.04-1.32.14-2.21.36-1.28.32-1.32,1.89-1.32,5.28,0,1.71,0,2.96-.04,4.42,0,.71.36,1.11,1.03,1.11,3.67.14,9.87.14,13.37,0,.68,0,1.03-.39,1.03-1.07v-5.67c0-3.17-.18-3.71-1.39-3.99-.89-.18-1.75-.32-2.28-.43-.5-.11-.46-.71,0-.71.43,0,2.42.14,5.03.14,1.53,0,3.74-.11,5.06-.14.25,0,.39.14.39.32,0,.14-.14.32-.39.36-.93.14-1.53.21-2.14.36-1.18.32-1.39,1.07-1.43,4.1-.04,2.85,0,4.88,0,7.63v7.06c0,3.1.18,4.24,1.21,4.53.96.29,1.53.36,2.28.43.5.04.46.68-.03.68-.71,0-3.57-.11-4.71-.11-1.21,0-4.95.11-5.24.11-.5,0-.5-.68,0-.75.46-.07,1.39-.14,2.35-.39,1.21-.25,1.36-1.57,1.36-4.38,0-1.96,0-3.64-.04-5.85-.04-.68-.39-1.03-1.07-1.07-3.49-.11-9.73-.11-13.37,0-.68.04-1.03.39-1.03,1.07v5.6c0,3.28.07,4.28,1.32,4.6.61.21,1.64.32,2.1.39.5.11.43.78-.04.78-.86,0-2.42-.11-4.95-.11-1.11,0-3.89.11-4.67.11-.5,0-.46-.68.11-.75Z"/>
    <path class="st0" d="M149.77,26.77c-1.21,0-2.46.04-3.32.04-.28,0-.39-.14-.39-.29,0-.18.11-.32.39-.36.61-.11,1.11-.21,1.39-.32,1.1-.39,1.82-1.46,3.21-4.92,1.82-4.49,4.71-12.19,6.99-18.18.71-1.96.93-2.74,1.28-2.74.39,0,.5.75,1.32,2.78,2.25,5.85,4.92,12.66,7.1,17.97,1.28,3.17,1.78,4.28,2.74,4.78.64.32,1.36.46,2.03.61.21.04.32.21.32.36s-.14.32-.39.32c-1.64,0-3.46-.04-4.96-.04-2.32,0-4.35.04-5.2.04-.5,0-.53-.61-.04-.68,1.11-.14,1.61-.21,2.14-.32,1.46-.36,1.57-1.75.61-4.06l-2.03-5.28c-.21-.57-.61-.82-1.21-.85-1.93-.07-4.67-.04-6.42.03-.61,0-1,.28-1.21.86l-1.53,4.24c-1.28,3.6-1.07,4.74.11,4.99.68.18,1.82.36,2.46.39.5.07.43.71-.07.71-1.07,0-4.21-.07-5.31-.07ZM161.78,13.33c-.93-2.32-1.82-4.67-2.82-7.24-.39-.93-.89-.75-1.18.11-.75,2.21-1.68,4.74-2.53,7.13-.25.75.07,1.25.86,1.25,1.46.04,3.28.04,4.81,0,.82,0,1.14-.5.85-1.25Z"/>
    <path class="st0" d="M193.66,24.38c-2.1-3.14-3.31-5.06-4.85-7.66-.86-1.46-1.1-1.75-2.42-1.78l-1.96-.11c-.71,0-1.1.36-1.1,1.03,0,1.5.03,3.07.03,5.24,0,3.17.07,4.03,1.46,4.42.89.25,1.82.39,2.57.5.5.11.46.71-.04.71-1.46,0-3.35-.04-5.49-.04-2,0-3.67.11-4.64.11-.25,0-.36-.14-.36-.32,0-.14.11-.32.36-.36.93-.14,1.1-.18,1.68-.32,1.35-.39,1.6-1.32,1.6-4.6v-8.06c.04-3.07.04-4.56.04-6.2-.04-3.17-.18-4.31-1.25-4.6-.78-.21-1.57-.32-2-.36-.29,0-.43-.18-.43-.32,0-.18.14-.32.46-.32.86,0,2.6.04,4.42.04,2.53,0,3.71-.14,5.85-.14,6.06,0,7.95,3.24,7.95,6.38,0,2.6-1.68,4.92-4.06,6.06-.68.28-.89.75-.5,1.35,1,1.64,2.39,3.92,3.99,6.17,1.43,2.03,2.42,3.39,3.53,4.07.75.43,1.46.64,2.5.85.28.04.43.21.43.36,0,.18-.14.32-.46.32-1.25,0-2.42.04-4.56.04-.64,0-1.43-.57-2.74-2.46ZM186.36,13.83c1.57-.03,2.5-.14,3.53-.85,1.5-1,2.57-2.74,2.57-4.78,0-3.89-2.64-6.06-6.74-6.06-.43,0-.82,0-1.18.04-.64,0-1.07.46-1.1,1.32-.04.75-.04,1.89-.04,3.56-.04,2.03-.04,3.71-.04,5.7,0,.71.36,1.11,1.03,1.11.64,0,1.32,0,1.96-.04Z"/>
    <path class="st0" d="M206.93,26.77c-1.21,0-2.46.04-3.32.04-.28,0-.39-.14-.39-.29,0-.18.11-.32.39-.36.61-.11,1.1-.21,1.39-.32,1.11-.39,1.82-1.46,3.21-4.92,1.82-4.49,4.71-12.19,6.99-18.18.71-1.96.93-2.74,1.28-2.74.39,0,.5.75,1.32,2.78,2.25,5.85,4.92,12.66,7.09,17.97,1.28,3.17,1.78,4.28,2.74,4.78.64.32,1.36.46,2.03.61.21.04.32.21.32.36s-.14.32-.39.32c-1.64,0-3.46-.04-4.95-.04-2.32,0-4.35.04-5.2.04-.5,0-.54-.61-.04-.68,1.1-.14,1.6-.21,2.14-.32,1.46-.36,1.57-1.75.61-4.06l-2.03-5.28c-.21-.57-.61-.82-1.21-.85-1.92-.07-4.67-.04-6.42.03-.61,0-1,.28-1.21.86l-1.53,4.24c-1.28,3.6-1.07,4.74.11,4.99.68.18,1.82.36,2.46.39.5.07.43.71-.07.71-1.07,0-4.21-.07-5.31-.07ZM218.95,13.33c-.93-2.32-1.82-4.67-2.82-7.24-.39-.93-.89-.75-1.18.11-.75,2.21-1.67,4.74-2.53,7.13-.25.75.07,1.25.86,1.25,1.46.04,3.28.04,4.81,0,.82,0,1.14-.5.86-1.25Z"/>
  </g>
  <g>
    <path class="st0" d="M56.41,61.46c.61-.07.93-.11,1.89-.32,1.21-.25,1.46-1.21,1.46-4.64v-6.99c0-2.75.04-4.71,0-6.52,0-3.28-.07-4.88-1.32-5.2-.78-.18-1.39-.28-2.28-.39-.25-.04-.36-.21-.36-.36s.11-.29.36-.29c1.03,0,2.92.11,5.06.11,1.96,0,4.38-.11,4.88-.11s.5.68,0,.71c-.61.04-1.32.14-2.21.36-1.28.32-1.32,1.89-1.32,5.28,0,1.71,0,2.96-.04,4.42,0,.71.36,1.11,1.03,1.11,3.67.14,9.87.14,13.37,0,.68,0,1.03-.39,1.03-1.07v-5.67c0-3.17-.18-3.71-1.39-3.99-.89-.18-1.75-.32-2.28-.43-.5-.11-.46-.71,0-.71.43,0,2.42.14,5.03.14,1.53,0,3.74-.11,5.06-.14.25,0,.39.14.39.32,0,.14-.14.32-.39.36-.93.14-1.53.21-2.14.36-1.18.32-1.39,1.07-1.43,4.1-.04,2.85,0,4.88,0,7.63v7.06c0,3.1.18,4.24,1.21,4.53.96.29,1.53.36,2.28.43.5.04.46.68-.03.68-.71,0-3.57-.11-4.71-.11-1.21,0-4.95.11-5.24.11-.5,0-.5-.68,0-.75.46-.07,1.39-.14,2.35-.39,1.21-.25,1.36-1.57,1.36-4.38,0-1.96,0-3.64-.04-5.85-.04-.68-.39-1.03-1.07-1.07-3.49-.11-9.73-.11-13.37,0-.68.04-1.03.39-1.03,1.07v5.6c0,3.28.07,4.28,1.32,4.6.61.21,1.64.32,2.1.39.5.11.43.78-.04.78-.86,0-2.42-.11-4.95-.11-1.11,0-3.89.11-4.67.11-.5,0-.46-.68.11-.75Z"/>
    <path class="st0" d="M92.07,62.17c-1.21,0-2.46.04-3.32.04-.28,0-.39-.14-.39-.29,0-.18.11-.32.39-.36.61-.11,1.11-.21,1.39-.32,1.1-.39,1.82-1.46,3.21-4.92,1.82-4.49,4.71-12.19,6.99-18.18.71-1.96.93-2.74,1.28-2.74.39,0,.5.75,1.32,2.78,2.25,5.85,4.92,12.66,7.1,17.97,1.28,3.17,1.78,4.28,2.74,4.78.64.32,1.36.46,2.03.61.21.04.32.21.32.36s-.14.32-.39.32c-1.64,0-3.46-.04-4.96-.04-2.32,0-4.35.04-5.2.04-.5,0-.53-.61-.04-.68,1.11-.14,1.61-.21,2.14-.32,1.46-.36,1.57-1.75.61-4.06l-2.03-5.28c-.21-.57-.61-.82-1.21-.85-1.93-.07-4.67-.04-6.42.03-.61,0-1,.28-1.21.86l-1.53,4.24c-1.28,3.6-1.07,4.74.11,4.99.68.18,1.82.36,2.46.39.5.07.43.71-.07.71-1.07,0-4.21-.07-5.31-.07ZM104.09,48.73c-.93-2.32-1.82-4.67-2.82-7.24-.39-.93-.89-.75-1.18.11-.75,2.21-1.68,4.74-2.53,7.13-.25.75.07,1.25.86,1.25,1.46.04,3.28.04,4.81,0,.82,0,1.14-.5.85-1.25Z"/>
    <path class="st0" d="M123.56,62.14c-2.18,0-3.14.07-4.06.07-.5,0-.5-.61.07-.71.96-.18,1.11-.22,1.82-.43,1.14-.36,1.32-1.5,1.43-5.67l.14-5.99c.07-2.74.07-4.95.07-9.05,0-1.36-.61-2.03-1.71-2.39-.89-.28-1.36-.39-2.25-.57-.25-.04-.39-.18-.39-.32,0-.18.18-.32.46-.32,1.1,0,3.85.11,5.7,0,.54,0,.68.25,1.18.86,6.31,7.95,9.66,12.05,12.66,15.76l1.5,1.85c.78,1,1.28.89,1.28-.46,0-2.89-.04-5.28-.04-7.66v-4.38c0-3.39-.18-4.35-1.39-4.67-.78-.21-1.71-.39-2.92-.57-.5-.11-.5-.75,0-.75.75,0,2.21.11,4.85.11,2.21,0,3.6-.07,3.99-.07.29,0,.43.11.43.25,0,.22-.14.36-.43.43-.93.18-1.28.25-1.71.43-1.1.36-1.43,1.28-1.46,4.63l-.07,4.6c-.07,3.56-.03,5.67-.03,8.48,0,4.42.03,5.49.07,6.1.04.5-.28.82-.64.82-.18,0-.36-.07-.5-.28-.36-.57-.78-1.6-2.82-4.14-3.81-4.74-7.66-9.59-10.55-13.15-1-1.25-1.85-2.25-2.67-3.24-.79-.96-1.36-.86-1.36.5,0,2.64-.04,5.2-.04,7.17l.04,6.06c.04,4.17.39,5.31,1.68,5.63.75.21,1.35.29,3.1.46.5.03.5.75,0,.75-1.11,0-3-.11-5.42-.11Z"/>
    <path class="st0" d="M149.77,62.17c-1.21,0-2.46.04-3.32.04-.28,0-.39-.14-.39-.29,0-.18.11-.32.39-.36.61-.11,1.11-.21,1.39-.32,1.1-.39,1.82-1.46,3.21-4.92,1.82-4.49,4.71-12.19,6.99-18.18.71-1.96.93-2.74,1.28-2.74.39,0,.5.75,1.32,2.78,2.25,5.85,4.92,12.66,7.1,17.97,1.28,3.17,1.78,4.28,2.74,4.78.64.32,1.36.46,2.03.61.21.04.32.21.32.36s-.14.32-.39.32c-1.64,0-3.46-.04-4.96-.04-2.32,0-4.35.04-5.2.04-.5,0-.53-.61-.04-.68,1.11-.14,1.61-.21,2.14-.32,1.46-.36,1.57-1.75.61-4.06l-2.03-5.28c-.21-.57-.61-.82-1.21-.85-1.93-.07-4.67-.04-6.42.03-.61,0-1,.28-1.21.86l-1.53,4.24c-1.28,3.6-1.07,4.74.11,4.99.68.18,1.82.36,2.46.39.5.07.43.71-.07.71-1.07,0-4.21-.07-5.31-.07ZM161.78,48.73c-.93-2.32-1.82-4.67-2.82-7.24-.39-.93-.89-.75-1.18.11-.75,2.21-1.68,4.74-2.53,7.13-.25.75.07,1.25.86,1.25,1.46.04,3.28.04,4.81,0,.82,0,1.14-.5.85-1.25Z"/>
    <path class="st0" d="M180.97,62.14c-1.14,0-3.1.03-4.56.07-.5,0-.57-.61-.07-.68.86-.11,1.28-.18,1.82-.28,1.14-.28,1.5-1.07,1.5-5.2.07-2.21.07-4.24.07-6.52v-6.49c0-3.96-.11-4.88-1.32-5.17-.5-.14-1.07-.25-2.1-.43-.28-.07-.46-.21-.46-.36s.18-.28.46-.28c.71,0,2.28.11,4.67.11s4.78-.11,5.24-.11.46.71-.03.78-1.43.18-2.46.39c-1.03.25-1.14,1.57-1.18,5.1,0,1.32,0,2.71-.04,4.42,0,.75.43,1.14,1.18,1.03.5-.11.93-.21,1.36-.39.46-.18.75-.36,1.07-.71,2.07-2.1,3.49-3.67,6.13-6.7,1.71-1.89,1.57-2.67.68-2.92-.43-.11-1.21-.25-2.1-.32-.5-.07-.46-.75.04-.75,1.21,0,2.32.11,4.88.11,1.68,0,2.46-.03,3.89-.07.5,0,.54.61,0,.68-1.07.18-1.53.36-2.64.96-.96.54-1.75,1.07-3.96,3.28l-5.1,5.31c-.46.5-.5.96-.07,1.5,1.93,2.39,4.64,5.74,7.02,8.63,1.46,1.71,2.46,2.67,3.42,3.32.75.54,1.71.85,2.67,1.03.28.04.43.25.43.39,0,.18-.14.36-.39.36-.86,0-2.42-.04-4.71-.04-1.61,0-3.78.07-5.49.07-.5,0-.5-.68,0-.71,1.1-.11,1.64-.18,2.32-.32.64-.18.71-.93-.14-2-3.14-3.92-5.85-7.2-7.52-9.2-.36-.43-.75-.61-1.32-.57l-.61.04c-.68.04-1.03.39-1.03,1.07v5.28c0,4.31.11,4.99,1.5,5.35.82.18,1.57.36,1.96.39.5.07.46.68-.04.68-1.32-.04-3.85-.11-4.95-.11Z"/>
    <path class="st0" d="M206.65,59.57c-2.35-2.17-3.96-5.38-3.96-9.2,0-9.02,6.24-13.9,13.48-13.9,3.35,0,6.35,1.07,8.45,3.03,2.35,2.17,3.99,5.38,3.99,9.16,0,9.05-6.24,13.94-13.55,13.94-3.32,0-6.28-1.1-8.41-3.03ZM225.44,49.84c-.04-4.35-1.64-7.7-3.82-9.8-1.78-1.75-3.96-2.53-6.74-2.53-4.28,0-9.06,3.96-8.98,11.73,0,4.28,1.53,7.74,3.67,9.81,1.85,1.71,4.03,2.53,6.77,2.53,4.35-.04,9.09-4.03,9.09-11.73Z"/>
  </g>
</svg>